<?xml version="1.0" standalone="no"?><!DOCTYPE svg PUBLIC "-//W3C//DTD SVG 1.1//EN" "http://www.w3.org/Graphics/SVG/1.1/DTD/svg11.dtd"><svg t="1513999210382" class="icon" style="" viewBox="0 0 1024 1024" version="1.1" xmlns="http://www.w3.org/2000/svg" p-id="2868" xmlns:xlink="http://www.w3.org/1999/xlink" width="200" height="200"><defs><style type="text/css"></style></defs><path d="M848.803327 163.915233 291.222199 163.915233c-12.814864 0-23.205515 10.388605-23.205515 23.205515l0 150.835334-92.822059 0c-12.815887 0-23.205515 10.388605-23.205515 23.205515l0 475.717655c0 12.81691 10.389628 23.206538 23.205515 23.206538l557.580105 0c12.815887 0 23.206538-10.388605 23.206538-23.206538l0-150.835334 92.821035 0c12.81691 0 23.206538-10.388605 23.206538-23.206538L872.008842 187.120748C872.008842 174.303838 861.620237 163.915233 848.803327 163.915233zM697.96697 802.070468l-487.963561 0L210.00341 453.984678l487.963561 0L697.96697 802.070468zM813.994544 303.148321l0 324.879252-58.012252 0L755.982292 361.161596c0-12.815887-10.389628-23.205515-23.206538-23.205515l-406.743748 0 0-58.012252 487.964584 0L813.994544 303.148321z" p-id="2869" fill="#dbdbdb"></path></svg>